<svg xmlns="http://www.w3.org/2000/svg" viewBox="0 0 228.76 229.19"><path d="M200.31 47.96c-1.79-2.87-4.8-4.14-5.44-2.32-9.88 56.74-78.05 86.87-131.24 62.72-17.6-10.67-34.34-17.58-37.11-48.25-.48-3.16-6.64-5.85-10.27 3.79-23.18 68.34-1.57 123.4 32.08 157.56 0 0 6.32 3.94 4.9-2.85-.92-4.4-52.46-38.41-36.19-132.56 0 0 .5-4.45 2.73-3.51 0 0 1.39 0 2.18 1.82 0 0 7.81 18.77 29.08 33.15 21.4 14.46 72.73 20.81 107.01.19 34.28-20.61 36.35-35.56 40.43-49.14 1.19-3.97 3.81-1.84 4.76 1.63 0 0 33.56 77.11-20.41 145.21-1.07 1.35-.26 6.2 3.76 2.58 50.2-45.31 40.1-140.53 13.73-170.02zm-7.39 65c-48.62 39.1-114.15 40.69-154.84 14.27-1.59 29.59 9.36 57.56 35.4 75.56 42.34 29.26 84.02 2.65 84.02 2.65 20.89-9.78 48.1-49.15 35.42-92.48zm-5.24 34.5c-2.31 11.83-9.08 23.54-15.56 33.6-14.96 23.21-47.48 31.66-72.76 24.29-16.17-4.71-26.13-12.16-37.34-24.56-6.31-6.97-10.55-18.66-12.82-27.69-3.24-12.94 10.09-4.48 15.62-2.44 10.78 3.97 22.32 5.91 33.76 6.49 29.13 1.47 58.7-6.58 82.18-24.13 9.08-6.76 7.77 10.1 6.92 14.44zm-72.45-68.33c38.07-5.56 61.3-29.36 56.87-44.71-6.02-20.86-37.74-31.59-75.9-26.63C72.71 10.84 42 24.06 37.74 50.04 31.77 86.56 94.3 82.2 115.23 79.13zM97 14.66c32.53-5.39 62.37 6.89 64.47 19.56 2.1 12.67-21.63 28.69-54.17 34.08-32.53 5.4-58.19-3.14-60.29-15.8C44.92 39.82 64.46 20.05 97 14.66z"/></svg>